<svg width="512" height="512" viewBox="0 0 512 512" fill="white" xmlns="http://www.w3.org/2000/svg">
    <path
        d="M124.78 158.665C139.768 88.1573 211.804 45.5048 280.833 66.268L365.042 91.5981C395.587 100.786 412.901 132.997 403.714 163.541C394.526 194.086 362.315 211.4 331.77 202.212L247.56 176.883C243.232 175.582 238.709 178.253 237.767 182.679V182.681C236.923 186.651 239.291 190.599 243.192 191.723L305.595 209.706C366.878 228.159 403.928 290.566 390.587 353.333C375.716 423.291 303.067 465.351 234.534 445.731L212.38 439.066L210.26 441.335C203.834 448.212 193.686 450.944 184.324 447.487C175.95 444.394 170.316 437.132 168.923 428.898L168.405 425.837L147.343 419.488L145.238 421.402C137.003 428.89 124.378 429.861 114.993 423.094C104.212 415.321 101.773 400.279 109.546 389.498L112.722 385.093L111.95 382.689C108.502 371.944 108.156 360.088 111.654 348.457C115.004 337.323 121.405 327.96 129.668 320.988L130.409 320.362L150.092 283.183C152.336 279.581 157.74 279.719 159.748 283.577L172.201 307.507C175.145 307.913 180.659 308.903 183.598 309.787L204.971 316.213L226.293 296.973C229.528 294.441 234.343 296.216 235.162 300.241L238.591 326.327L267.808 335.116H267.81C272.139 336.417 276.66 333.744 277.602 329.319V329.316C278.444 325.346 276.075 321.399 272.176 320.276L252.471 314.599L250.385 298.666C248.201 281.998 228.204 274.632 215.729 285.899L200.935 299.26C192.946 296.184 185.43 292.341 178.45 287.834C177.743 285.871 176.821 283.587 175.619 280.989C175.311 280.323 174.505 278.245 172.964 275.931C168.954 269.911 162.907 265.607 155.666 265.312L152.338 265.176C127.755 236.872 116.454 197.839 124.78 158.665ZM190.221 357.713C189.151 356.841 187.576 357.001 186.703 358.071C185.831 359.14 185.99 360.715 187.06 361.587L187.289 361.775C195.115 368.16 205.846 369.657 215.12 365.657C216.387 365.11 216.971 363.638 216.425 362.371C215.878 361.103 214.407 360.518 213.14 361.065C205.579 364.326 196.831 363.106 190.451 357.901L190.221 357.713ZM134.009 349.572C132.939 348.699 131.365 348.86 130.492 349.929C129.62 350.999 129.779 352.573 130.849 353.446L131.077 353.633C138.903 360.018 149.634 361.515 158.908 357.515C160.175 356.968 160.76 355.496 160.214 354.229C159.667 352.962 158.196 352.377 156.929 352.923C149.368 356.185 140.619 354.965 134.239 349.759L134.009 349.572Z"
    />
</svg>