<svg width="512" height="512" viewBox="0 0 512 512" stroke="white" stroke-width="5"
    stroke-linecap="round" fill="none" xmlns="http://www.w3.org/2000/svg">
    <path
        d="M122.336 158.146C137.627 86.2078 211.125 42.6896 281.554 63.874L365.763 89.2051C397.63 98.7909 415.694 132.396 406.108 164.264C396.522 196.13 362.919 214.192 331.052 204.607L246.841 179.278L246.84 179.277C243.909 178.397 240.849 180.208 240.212 183.202V183.203C239.659 185.806 241.147 188.393 243.64 189.244L243.884 189.321L304.835 206.876C368.245 225.138 406.753 289.309 393.033 353.854C377.742 425.793 304.243 469.311 233.814 448.126L214.634 442.355L213.146 441.908L212.087 443.043C204.999 450.629 193.799 453.651 183.459 449.832C174.211 446.416 167.996 438.397 166.46 429.316L166.2 427.786L164.715 427.339L149.606 422.795C149.498 422.762 149.493 422.759 149.334 422.711L147.974 422.295L146.921 423.252C137.829 431.518 123.894 432.596 113.531 425.124C101.816 416.678 99.025 400.455 107.125 388.599L107.519 388.037L109.218 385.68L109.956 384.656L109.57 383.454C105.972 372.243 105.611 359.869 109.26 347.738C112.753 336.125 119.434 326.352 128.056 319.077L128.427 318.765L128.653 318.336L147.675 282.375C150.716 276.626 158.964 276.654 161.967 282.424L173.226 304.062L173.822 305.208L175.103 305.384C178.174 305.807 181.254 306.473 184.318 307.395H184.319L202.992 313.009L204.342 313.415L205.388 312.471L224.299 295.387C229.126 291.026 236.866 293.877 237.711 300.326L240.651 322.796L240.86 324.4L242.409 324.866L268.528 332.724C271.46 333.605 274.519 331.794 275.156 328.8V328.799C275.727 326.112 274.125 323.44 271.485 322.68H271.484L250.205 316.549L247.906 298.992C245.985 284.322 228.385 277.839 217.406 287.756L201.478 302.141C192.512 298.813 184.117 294.539 176.376 289.466C175.766 287.702 174.961 285.628 173.9 283.249L173.351 282.038C172.976 281.228 172.285 279.422 170.884 277.317C167.311 271.953 162.145 268.3 156.147 267.846L155.564 267.812L151.166 267.631C125.594 238.694 113.76 198.494 122.336 158.146Z"
    />
    <path d="M188.64 359.65L188.87 359.837C195.973 365.633 205.712 366.991 214.13 363.36"
    />
    <path d="M132.428 351.508L132.658 351.696C139.761 357.492 149.501 358.85 157.918 355.218"
    />
</svg>