<svg width="55" height="21" viewBox="0 0 55 21" fill="none" xmlns="http://www.w3.org/2000/svg">
    <path
        d="M53.8257 20.1973C53.5728 20.1973 53.3678 19.9923 53.3678 19.7394V7.24967C53.3678 6.99679 53.5728 6.79179 53.8257 6.79179C54.0785 6.79179 54.2835 6.99679 54.2835 7.24967V19.7394C54.2835 19.9923 54.0785 20.1973 53.8257 20.1973ZM53.8511 3.40862C53.5798 3.40862 53.3593 3.31535 53.1897 3.12881C53.0202 2.94227 52.9354 2.68789 52.9354 2.36568C52.9354 2.07739 53.0202 1.84846 53.1897 1.67887C53.3593 1.49233 53.5798 1.39906 53.8511 1.39906C54.1055 1.39906 54.3175 1.49233 54.487 1.67887C54.6736 1.84846 54.7669 2.07739 54.7669 2.36568C54.7669 2.68789 54.6736 2.94227 54.487 3.12881C54.3175 3.31535 54.1055 3.40862 53.8511 3.40862Z"
        fill="white" />
    <path
        d="M41.1318 20.1973C40.8789 20.1973 40.6739 19.9923 40.6739 19.7394V0.457872C40.6739 0.204996 40.8789 0 41.1318 0C41.3847 0 41.5897 0.204996 41.5897 0.457872V15.228C41.5897 15.247 41.6051 15.2624 41.6242 15.2624C41.6345 15.2624 41.6444 15.2578 41.6509 15.2497L48.41 6.94425C48.4885 6.84778 48.6063 6.79179 48.7307 6.79179C49.0793 6.79179 49.2714 7.19685 49.0508 7.46681L45.7324 11.5269C45.4609 11.8591 45.4315 12.3275 45.6594 12.691L49.9624 19.5543C50.1378 19.834 49.9367 20.1973 49.6066 20.1973C49.4617 20.1973 49.3269 20.1225 49.2502 19.9995L45.4709 13.9359C45.1118 13.3598 44.2955 13.3012 43.8578 13.82L41.8253 16.2295C41.6732 16.4099 41.5897 16.6383 41.5897 16.8743V19.7394C41.5897 19.9923 41.3847 20.1973 41.1318 20.1973Z"
        fill="white" />
    <path
        d="M34.8967 20.1973C34.6438 20.1973 34.4388 19.9923 34.4388 19.7394V7.24967C34.4388 6.99679 34.6438 6.79179 34.8967 6.79179C35.1495 6.79179 35.3545 6.99679 35.3545 7.24967V19.7394C35.3545 19.9923 35.1495 20.1973 34.8967 20.1973ZM34.9221 3.40862C34.6508 3.40862 34.4303 3.31535 34.2607 3.12881C34.0911 2.94227 34.0064 2.68789 34.0064 2.36568C34.0064 2.07739 34.0911 1.84846 34.2607 1.67887C34.4303 1.49233 34.6508 1.39906 34.9221 1.39906C35.1765 1.39906 35.3885 1.49233 35.558 1.67887C35.7446 1.84846 35.8378 2.07739 35.8378 2.36568C35.8378 2.68789 35.7446 2.94227 35.558 3.12881C35.3885 3.31535 35.1765 3.40862 34.9221 3.40862Z"
        fill="white" />
    <path
        d="M20.7227 6.52453C20.7227 7.42112 21.8465 7.89497 22.5803 7.37981C22.6817 7.30868 22.7831 7.24002 22.8848 7.17383C23.6309 6.69903 24.4707 6.46098 25.4033 6.46094C26.7769 6.46094 27.7947 6.88548 28.4561 7.7334C29.1173 8.56436 29.4482 9.84466 29.4482 11.5742V19.7393C29.4482 19.9922 29.2432 20.1973 28.9902 20.1973C28.7373 20.1973 28.5322 19.9922 28.5322 19.7393V11.7012C28.5322 10.226 28.2781 9.12373 27.7695 8.39453C27.2777 7.66533 26.4549 7.30078 25.3018 7.30078C24.4709 7.30079 23.7079 7.52109 23.0127 7.96191C22.4103 8.35344 21.7406 8.91901 21.0044 9.65826C20.8221 9.84137 20.7227 10.0906 20.7227 10.3491V19.7397C20.7227 19.9924 20.5178 20.1973 20.2651 20.1973C20.0125 20.1973 19.8076 19.9924 19.8076 19.7397V1.93066C19.8076 1.37838 19.3599 0.930664 18.8076 0.930664H10.2705C8.97428 0.930711 7.934 1.25907 7.14941 1.91504C6.36477 2.57106 5.97266 3.44857 5.97266 4.54785C5.97266 5.34565 6.15162 6.00146 6.50977 6.51562C6.86797 7.01208 7.30273 7.41147 7.81445 7.71289C8.32608 7.99653 8.7953 8.24429 9.22168 8.45703L12.0615 9.78711C12.7609 10.1063 13.4098 10.4788 14.0068 10.9043C14.6037 11.3121 15.0813 11.8354 15.4395 12.4736C15.8146 13.0942 16.0019 13.9008 16.002 14.8936C16.002 15.8686 15.7636 16.7463 15.2861 17.5264C14.8086 18.2887 14.1345 18.8917 13.2646 19.335C12.3948 19.7782 11.3712 20 10.1943 20H0.465332C0.208336 20 0 19.7917 0 19.5347C0 19.2777 0.208336 19.0693 0.465332 19.0693H10.1943C11.678 19.0693 12.8548 18.688 13.7246 17.9258C14.6115 17.1634 15.0556 16.1792 15.0557 14.9736C15.0557 14.105 14.8933 13.4136 14.5693 12.8994C14.2623 12.3852 13.8525 11.9686 13.3408 11.6494C12.8291 11.3125 12.2581 11.0015 11.627 10.7178L8.78711 9.38867C8.25832 9.14044 7.69467 8.82937 7.09766 8.45703C6.51803 8.08481 6.02347 7.59761 5.61426 6.99512C5.20488 6.37456 5.00001 5.59399 5 4.6543C5 3.71458 5.22988 2.89852 5.69043 2.20703C6.15098 1.51559 6.77398 0.975012 7.55859 0.584961C8.36022 0.194934 9.26423 3.62826e-05 10.2705 0H19.7227C20.2749 0 20.7227 0.447715 20.7227 1V6.52453Z"
        fill="white" />
</svg>
    