<svg width="512" height="512" viewBox="0 0 512 512" fill="white" xmlns="http://www.w3.org/2000/svg">
    <path
        d="M119.89 157.626C135.485 84.2567 210.444 39.8742 282.274 61.4801L366.483 86.8102C399.672 96.7935 418.485 131.793 408.502 164.982C398.519 198.171 363.52 216.984 330.33 207.001L246.12 181.672C244.589 181.211 242.99 182.157 242.657 183.721C242.359 185.125 243.197 186.521 244.576 186.919L305.526 204.473C370.197 223.098 409.47 288.545 395.478 354.374C379.882 427.743 304.924 472.125 233.095 450.519L213.913 444.749C206.162 453.044 193.909 456.357 182.592 452.177C172.47 448.439 165.673 439.66 163.993 429.733L148.886 425.189C148.791 425.161 148.697 425.13 148.603 425.101C138.655 434.146 123.411 435.328 112.069 427.151C99.0485 417.763 96.1035 399.596 105.491 386.575L107.19 384.217C103.442 372.541 103.067 359.649 106.866 347.017C110.504 334.926 117.463 324.744 126.443 317.167L145.465 281.207C149.449 273.675 160.251 273.711 164.185 281.269L175.443 302.907C178.642 303.347 181.849 304.039 185.038 304.999L203.711 310.614L222.623 293.531C228.946 287.819 239.082 291.553 240.189 300.002L243.129 322.471L269.248 330.329C270.78 330.789 272.378 329.843 272.711 328.279C273.01 326.875 272.172 325.478 270.792 325.081L247.939 318.498L245.428 299.316C243.768 286.644 228.565 281.044 219.081 289.61L202.034 305.006C192.074 301.443 182.786 296.74 174.284 291.085C173.587 288.969 172.567 286.3 171.081 283.088C170.641 282.136 170.065 280.597 168.803 278.703C165.436 273.648 160.711 270.522 155.462 270.308L150.001 270.086C123.433 240.521 111.064 199.15 119.89 157.626ZM190.22 357.713C189.15 356.84 187.576 357 186.703 358.07C185.831 359.14 185.99 360.714 187.06 361.587L187.289 361.774C195.115 368.159 205.845 369.656 215.119 365.656C216.387 365.109 216.972 363.637 216.425 362.37C215.878 361.102 214.407 360.517 213.14 361.064C205.579 364.326 196.831 363.106 190.45 357.9L190.22 357.713ZM134.009 349.571C132.939 348.698 131.364 348.859 130.491 349.928C129.619 350.998 129.778 352.572 130.848 353.445L131.077 353.632C138.903 360.018 149.634 361.515 158.908 357.514C160.176 356.967 160.76 355.496 160.213 354.228C159.666 352.961 158.195 352.376 156.928 352.922C149.367 356.184 140.62 354.964 134.239 349.758L134.009 349.571Z"
    />
</svg>