<svg width="946" height="280" stroke="white" stroke-width="40" stroke-linecap="round"
    viewBox="0 0 946 280" fill="none" xmlns="http://www.w3.org/2000/svg">
    <g clip-path="url(#clip0_41_253)">
        <path
            d="M199.2 20H118.968C91.0939 20 66.9958 39.4446 61.1051 66.6891L59.1253 75.8455C52.1691 108.018 76.684 138.4 109.6 138.4C142.516 138.4 167.031 168.782 160.075 200.955L158.095 210.111C152.204 237.355 128.106 256.8 100.232 256.8H20"
        />
        <path
            d="M302.816 20L277.216 138.4M251.616 256.8L277.216 138.4M277.216 138.4L293.131 124.607C312.497 107.823 340.148 104.565 362.885 116.388C387.88 129.385 401.087 157.499 395.133 185.034L379.616 256.8"
        />
        <path
            d="M676.112 20L650.512 138.4M624.912 256.8L650.512 138.4M650.512 138.4L726.405 101.402C748.08 90.8355 772.586 109.333 768.366 133.074C766.7 142.442 760.617 150.431 752.03 154.529L715.853 171.792C684.622 186.695 685.768 231.537 717.72 244.825L746.512 256.8"
        />
        <path
            d="M475.84 90.4H485.982C512.805 90.4 532.027 116.281 524.275 141.96L504.205 208.44C496.453 234.119 515.675 260 542.499 260H552.64M523.84 20V28"
        />
        <path
            d="M849.136 90.4H859.278C886.101 90.4 905.323 116.281 897.571 141.96L877.501 208.44C869.749 234.119 888.971 260 915.795 260H925.936M897.136 20V28"
        />
    </g>
</svg>